<svg width="50" height="50" viewBox="0 0 50 50" fill="none" xmlns="http://www.w3.org/2000/svg">
<g id="wallet 1" clip-path="url(#clip0_12_198)">
<g id="Group">
<g id="Group_2">
<g id="Group_3">
<path id="Vector" d="M46.5906 40.9092H38.6362C33.6236 40.9092 29.5454 36.831 29.5454 31.8184C29.5454 26.8059 33.6236 22.7277 38.6362 22.7277H46.5906C47.2187 22.7277 47.727 22.2194 47.727 21.5913V18.1823C47.727 15.7994 45.8786 13.8615 43.5433 13.6735L37.0172 2.27457C36.4124 1.22032 35.4358 0.466818 34.2673 0.153932C33.1042 -0.156823 31.8881 0.00638503 30.8471 0.612235L8.47503 13.6369H4.5458C2.03899 13.6369 0.000383377 15.6754 0.000383377 18.1823V45.4546C0.000383377 47.9614 2.03888 50 4.5458 50H43.1816C45.6884 50 47.727 47.9615 47.727 45.4546V42.0455C47.727 41.4174 47.2187 40.9092 46.5906 40.9092ZM38.4265 9.31209L40.9025 13.6369H30.9981L38.4265 9.31209ZM12.992 13.6369L31.9912 2.57637C32.505 2.27563 33.1053 2.19573 33.6791 2.34893C34.2595 2.50425 34.7433 2.87935 35.0441 3.40423L35.0464 3.40839L17.4782 13.6369H12.992Z" fill="white"/>
<path id="Vector_2" d="M46.5905 25.0002H38.6361C34.8764 25.0002 31.818 28.0586 31.818 31.8183C31.818 35.5781 34.8764 38.6364 38.6361 38.6364H46.5905C48.4704 38.6364 49.9996 37.1072 49.9996 35.2274V28.4093C49.9996 26.5294 48.4704 25.0002 46.5905 25.0002ZM38.6361 34.091C37.3833 34.091 36.3634 33.0711 36.3634 31.8183C36.3634 30.5655 37.3833 29.5457 38.6361 29.5457C39.8889 29.5457 40.9087 30.5655 40.9087 31.8183C40.9088 33.0711 39.889 34.091 38.6361 34.091Z" fill="white"/>
</g>
</g>
</g>
</g>
<defs>
<clipPath id="clip0_12_198">
<rect width="50" height="50" fill="white"/>
</clipPath>
</defs>
</svg>
